<svg width="18" height="18" viewBox="0 0 18 18" fill="none" xmlns="http://www.w3.org/2000/svg">
<mask id="mask0_1_32" style="mask-type:alpha" maskUnits="userSpaceOnUse" x="2" y="2" width="14" height="14">
<path d="M10.9448 15.75V10.8464H12.6077L12.8559 8.98208H10.9448V7.77469C10.9448 7.22426 11.0942 6.85139 11.8929 6.85139H12.9375V5.13352C12.7611 5.11133 12.144 5.0625 11.441 5.0625C9.97253 5.0625 8.98019 5.95473 8.98019 7.57494V8.98208H7.3125V10.8464H8.97979L8.97655 15.75H3.375C2.75977 15.75 2.25 15.2402 2.25 14.625V3.375C2.25 2.75977 2.75977 2.25 3.375 2.25H14.625C15.2402 2.25 15.75 2.75977 15.75 3.375V14.625C15.75 15.2402 15.2402 15.75 14.625 15.75H10.9448Z" fill="white"/>
</mask>
<g mask="url(#mask0_1_32)">
<path d="M10.9448 15.75V10.8464H12.6077L12.8559 8.98208H10.9448V7.77469C10.9448 7.22426 11.0942 6.85139 11.8929 6.85139H12.9375V5.13352C12.7611 5.11133 12.144 5.0625 11.441 5.0625C9.97253 5.0625 8.98019 5.95473 8.98019 7.57494V8.98208H7.3125V10.8464H8.97979L8.97655 15.75H3.375C2.75977 15.75 2.25 15.2402 2.25 14.625V3.375C2.25 2.75977 2.75977 2.25 3.375 2.25H14.625C15.2402 2.25 15.75 2.75977 15.75 3.375V14.625C15.75 15.2402 15.2402 15.75 14.625 15.75H10.9448Z" fill="white"/>
</g>
</svg>
