<svg width="18" height="18" viewBox="0 0 18 18" fill="none" xmlns="http://www.w3.org/2000/svg">
<path fill-rule="evenodd" clip-rule="evenodd" d="M2.25 6.1457C2.25 3.99416 3.99415 2.25 6.1457 2.25H11.8543C14.0058 2.25 15.75 3.99415 15.75 6.1457V11.8543C15.75 14.0058 14.0059 15.75 11.8543 15.75H6.1457C3.99416 15.75 2.25 14.0059 2.25 11.8543V6.1457ZM3.47198 6.26189V11.7381C3.47198 13.2812 4.72107 14.528 6.26189 14.528H11.7381C13.2812 14.528 14.528 13.2789 14.528 11.7381V6.26189C14.528 4.71876 13.2789 3.47198 11.7381 3.47198H6.26189C4.71876 3.47198 3.47198 4.72107 3.47198 6.26189ZM9 12.4332C7.1039 12.4332 5.56681 10.8961 5.56681 9C5.56681 7.1039 7.1039 5.56681 9 5.56681C10.8961 5.56681 12.4332 7.1039 12.4332 9C12.4332 10.8961 10.8961 12.4332 9 12.4332ZM9 11.2112C10.2212 11.2112 11.2112 10.2212 11.2112 9C11.2112 7.77878 10.2212 6.78879 9 6.78879C7.77878 6.78879 6.78879 7.77878 6.78879 9C6.78879 10.2212 7.77878 11.2112 9 11.2112ZM12.5496 6.2069C12.0996 6.2069 11.7349 5.84216 11.7349 5.39224C11.7349 4.94232 12.0996 4.57759 12.5496 4.57759C12.9995 4.57759 13.3642 4.94232 13.3642 5.39224C13.3642 5.84216 12.9995 6.2069 12.5496 6.2069Z" fill="white"/>
</svg>
