<svg width="18" height="18" viewBox="0 0 18 18" fill="none" xmlns="http://www.w3.org/2000/svg">
<mask id="mask0_1_39" style="mask-type:alpha" maskUnits="userSpaceOnUse" x="2" y="2" width="14" height="14">
<path d="M9 2.25C5.27124 2.25 2.25 5.27124 2.25 9C2.25 11.8608 4.02979 14.302 6.54126 15.2864C6.48193 14.7524 6.427 13.9329 6.56323 13.3484C6.68628 12.8232 7.35425 9.99316 7.35425 9.99316C7.35425 9.99316 7.1543 9.58887 7.1543 8.99121C7.1543 8.05298 7.69702 7.35205 8.37378 7.35205C8.94946 7.35205 9.22852 7.78491 9.22852 8.30347C9.22852 8.88354 8.85938 9.74927 8.66821 10.5513C8.51001 11.2236 9.00659 11.7708 9.66797 11.7708C10.8677 11.7708 11.7905 10.5051 11.7905 8.6792C11.7905 7.06421 10.6304 5.93481 8.97144 5.93481C7.05103 5.93481 5.92383 7.37402 5.92383 8.86377C5.92383 9.44385 6.14795 10.0657 6.427 10.4041C6.48193 10.47 6.48853 10.5293 6.47315 10.5974C6.42041 10.8105 6.30835 11.2698 6.28638 11.3621C6.25562 11.4873 6.1875 11.5137 6.06006 11.4521C5.21631 11.061 4.68897 9.82837 4.68897 8.8374C4.68897 6.70825 6.23584 4.75269 9.14941 4.75269C11.4917 4.75269 13.311 6.42041 13.311 8.65283C13.311 10.9775 11.8433 12.8496 9.80859 12.8496C9.12524 12.8496 8.48145 12.4958 8.26172 12.0762C8.26172 12.0762 7.92334 13.3638 7.83984 13.6802C7.68823 14.2668 7.27734 15.0007 7.00049 15.449C7.6333 15.6445 8.30347 15.75 9 15.75C12.7288 15.75 15.75 12.7288 15.75 9C15.75 5.27124 12.7288 2.25 9 2.25Z" fill="white"/>
</mask>
<g mask="url(#mask0_1_39)">
<path d="M9 2.25C5.27124 2.25 2.25 5.27124 2.25 9C2.25 11.8608 4.02979 14.302 6.54126 15.2864C6.48193 14.7524 6.427 13.9329 6.56323 13.3484C6.68628 12.8232 7.35425 9.99316 7.35425 9.99316C7.35425 9.99316 7.1543 9.58887 7.1543 8.99121C7.1543 8.05298 7.69702 7.35205 8.37378 7.35205C8.94946 7.35205 9.22852 7.78491 9.22852 8.30347C9.22852 8.88354 8.85938 9.74927 8.66821 10.5513C8.51001 11.2236 9.00659 11.7708 9.66797 11.7708C10.8677 11.7708 11.7905 10.5051 11.7905 8.6792C11.7905 7.06421 10.6304 5.93481 8.97144 5.93481C7.05103 5.93481 5.92383 7.37402 5.92383 8.86377C5.92383 9.44385 6.14795 10.0657 6.427 10.4041C6.48193 10.47 6.48853 10.5293 6.47315 10.5974C6.42041 10.8105 6.30835 11.2698 6.28638 11.3621C6.25562 11.4873 6.1875 11.5137 6.06006 11.4521C5.21631 11.061 4.68897 9.82837 4.68897 8.8374C4.68897 6.70825 6.23584 4.75269 9.14941 4.75269C11.4917 4.75269 13.311 6.42041 13.311 8.65283C13.311 10.9775 11.8433 12.8496 9.80859 12.8496C9.12524 12.8496 8.48145 12.4958 8.26172 12.0762C8.26172 12.0762 7.92334 13.3638 7.83984 13.6802C7.68823 14.2668 7.27734 15.0007 7.00049 15.449C7.6333 15.6445 8.30347 15.75 9 15.75C12.7288 15.75 15.75 12.7288 15.75 9C15.75 5.27124 12.7288 2.25 9 2.25Z" fill="white"/>
</g>
</svg>
