<svg width="24" height="24" viewBox="0 0 24 24" fill="none" xmlns="http://www.w3.org/2000/svg">
<mask id="mask0_1_196" style="mask-type:alpha" maskUnits="userSpaceOnUse" x="6" y="3" width="15" height="18">
<path d="M20.4615 11.0469L7.75137 3.16796C7.40255 2.95541 6.94472 2.94075 6.58863 3.14597C6.22528 3.35119 6 3.73964 6 4.15741V19.842C6 20.2597 6.22528 20.6482 6.58137 20.8534C6.75578 20.9487 6.94472 21 7.14093 21C7.35168 21 7.55516 20.9414 7.73684 20.8314L20.447 13.0185C20.7885 12.8132 20.9993 12.4321 20.9993 12.0363C21.0138 11.6332 20.8031 11.2521 20.4615 11.0469Z" fill="white"/>
</mask>
<g mask="url(#mask0_1_196)">
<path d="M20.4615 11.0469L7.75137 3.16796C7.40255 2.95541 6.94472 2.94075 6.58863 3.14597C6.22528 3.35119 6 3.73964 6 4.15741V19.842C6 20.2597 6.22528 20.6482 6.58137 20.8534C6.75578 20.9487 6.94472 21 7.14093 21C7.35168 21 7.55516 20.9414 7.73684 20.8314L20.447 13.0185C20.7885 12.8132 20.9993 12.4321 20.9993 12.0363C21.0138 11.6332 20.8031 11.2521 20.4615 11.0469Z" fill="white"/>
</g>
</svg>
