<svg width="18" height="18" viewBox="0 0 18 18" fill="none" xmlns="http://www.w3.org/2000/svg">
<path fill-rule="evenodd" clip-rule="evenodd" d="M15.75 4.67606C15.2533 4.89544 14.7195 5.04506 14.1593 5.11088C14.7308 4.76831 15.1701 4.2255 15.3765 3.57919C14.8427 3.89587 14.2493 4.1265 13.6187 4.25194C13.113 3.71362 12.3924 3.375 11.5971 3.375C10.0676 3.375 8.82619 4.61644 8.82619 6.14587C8.82619 6.36356 8.85037 6.5745 8.89875 6.77644C6.59644 6.66225 4.55513 5.55919 3.1905 3.88237C2.95087 4.29131 2.81475 4.76831 2.81475 5.27569C2.81475 6.23587 3.30244 7.08413 4.04719 7.58081C3.59269 7.56506 3.16631 7.44244 2.79281 7.23319C2.79281 7.24669 2.79281 7.25737 2.79281 7.26862C2.79281 8.61131 3.74625 9.73181 5.01412 9.98438C4.78125 10.0479 4.53713 10.0834 4.28456 10.0834C4.10681 10.0834 3.93075 10.0659 3.76369 10.0328C4.11525 11.1336 5.13956 11.9334 6.35006 11.9576C5.40281 12.7001 4.2075 13.1417 2.9115 13.1417C2.68706 13.1417 2.46769 13.1287 2.25 13.1023C3.47625 13.8892 4.93088 14.3482 6.49519 14.3482C11.5903 14.3482 14.3769 10.1273 14.3769 6.4665C14.3769 6.34781 14.3724 6.22688 14.3679 6.10819C14.9085 5.71725 15.3787 5.22956 15.75 4.67606Z" fill="white"/>
</svg>
