<svg width="18" height="18" viewBox="0 0 18 18" fill="none" xmlns="http://www.w3.org/2000/svg">
<mask id="mask0_1_25" style="mask-type:alpha" maskUnits="userSpaceOnUse" x="1" y="3" width="16" height="12">
<path d="M9 3.375C11.1184 3.375 12.9904 3.59494 14.1328 3.762C15.0778 3.90038 15.84 4.61194 16.0138 5.55469C16.1629 6.35906 16.3125 7.53469 16.3125 9C16.3125 10.4653 16.1606 11.6409 16.0138 12.4453C15.84 13.3881 15.0778 14.1019 14.1328 14.238C12.9859 14.4051 11.1071 14.625 9 14.625C6.89287 14.625 5.01413 14.4051 3.86719 14.238C2.92219 14.1019 2.16 13.3881 1.98619 12.4453C1.83937 11.6432 1.6875 10.4698 1.6875 9C1.6875 7.53019 1.83937 6.35681 1.98619 5.55469C2.16 4.61194 2.92219 3.90038 3.86719 3.762C5.00962 3.59494 6.88162 3.375 9 3.375ZM7.3125 5.78306V12.2169L8.15625 11.7422L12.0938 9.49219L12.9375 9L12.0938 8.50781L8.15625 6.25781L7.3125 5.78306Z" fill="white"/>
</mask>
<g mask="url(#mask0_1_25)">
<path d="M9 3.375C11.1184 3.375 12.9904 3.59494 14.1328 3.762C15.0778 3.90038 15.84 4.61194 16.0138 5.55469C16.1629 6.35906 16.3125 7.53469 16.3125 9C16.3125 10.4653 16.1606 11.6409 16.0138 12.4453C15.84 13.3881 15.0778 14.1019 14.1328 14.238C12.9859 14.4051 11.1071 14.625 9 14.625C6.89287 14.625 5.01413 14.4051 3.86719 14.238C2.92219 14.1019 2.16 13.3881 1.98619 12.4453C1.83937 11.6432 1.6875 10.4698 1.6875 9C1.6875 7.53019 1.83937 6.35681 1.98619 5.55469C2.16 4.61194 2.92219 3.90038 3.86719 3.762C5.00962 3.59494 6.88162 3.375 9 3.375ZM7.3125 5.78306V12.2169L8.15625 11.7422L12.0938 9.49219L12.9375 9L12.0938 8.50781L8.15625 6.25781L7.3125 5.78306Z" fill="white"/>
</g>
</svg>
